<?xml version="1.0" encoding="utf-8"?>
<!-- Generator: Adobe Illustrator 26.5.0, SVG Export Plug-In . SVG Version: 6.00 Build 0)  -->
<svg version="1.1" xmlns="http://www.w3.org/2000/svg" xmlns:xlink="http://www.w3.org/1999/xlink" x="0px" y="0px"
	 viewBox="0 0 130 120" style="enable-background:new 0 0 130 120;" xml:space="preserve">
<style type="text/css">
	.st0{clip-path:url(#mask_00000173132692189713395270000013059351900733187743_);}
	.st1{fill:#FFFFFF;}
	.st2{opacity:0.3;clip-path:url(#mask_00000173132692189713395270000013059351900733187743_);fill:#231F20;}
	.st3{display:none;}
	.st4{display:inline;fill:#A11D21;}
</style>
<g id="Layer_1">
	<g>
		<g>
			<defs>
				<polygon id="mask" points="54.8,-1.5 73.4,13 69.9,20.6 54.8,38.7 54.8,60.2 -15.8,60.2 -15.8,152 125.4,152 125.8,64.1 
					105.2,41 98,24.6 114.8,17.7 125.4,-1.5 				"/>
			</defs>
			<clipPath id="mask_00000140716702126327500080000006648531031645782204_">
				<use xlink:href="#mask"  style="overflow:visible;"/>
			</clipPath>
			<g id="white_2_" style="clip-path:url(#mask_00000140716702126327500080000006648531031645782204_);">
				
					<text id="white_1_" transform="matrix(1 0 0 1 -13.2442 149.6536)" style="display:none;fill:#FFFFFF; font-family:'Loew-ExtraBold'; font-size:20.0863px;">JEROMEDIA</text>
				<polygon id="white" class="st1" points="-12.2,0.6 36.3,118.8 69.4,118.8 118.1,0.6 84.5,0.6 52.9,79.1 21.5,0.6 				"/>
			</g>
			<g id="blue_3_" style="clip-path:url(#mask_00000140716702126327500080000006648531031645782204_);">
				
					<text id="blue_2_" transform="matrix(1 0 0 1 -13.2442 149.6536)" style="display:none;fill:#FFFFFF; font-family:'Loew-ExtraBold'; font-size:20.0863px;">JEROMEDIA</text>
				<polygon id="blue_1_" class="st1" points="-12.2,0.6 36.3,118.8 69.4,118.8 118.1,0.6 84.5,0.6 52.9,79.1 21.5,0.6 				"/>
			</g>
			
				<polygon id="shadow" style="opacity:0.3;clip-path:url(#mask_00000140716702126327500080000006648531031645782204_);fill:#231F20;" points="
				69,39.1 69,118.8 53.1,79 			"/>
		</g>
	</g>
</g>
<g id="Layer_2" class="st3">
	<rect x="12.1" y="60.2" class="st4" width="105.8" height="16.6"/>
</g>
</svg>
